<?xml version="1.0" standalone="no"?>
<!DOCTYPE svg PUBLIC "-//W3C//DTD SVG 20010904//EN"
 "http://www.w3.org/TR/2001/REC-SVG-20010904/DTD/svg10.dtd">
<svg version="1.0" xmlns="http://www.w3.org/2000/svg"
 width="2048.000000pt" height="553.000000pt" viewBox="0 0 2048.000000 553.000000"
 preserveAspectRatio="xMidYMid meet">

<g transform="translate(0.000000,553.000000) scale(0.100000,-0.100000)"
fill="#000000" stroke="none">
<path d="M7451 5250 c-150 -23 -312 -103 -403 -197 -52 -54 -105 -147 -130
-226 -17 -57 -20 -87 -16 -185 4 -106 7 -124 35 -182 43 -92 84 -144 156 -196
91 -68 133 -86 389 -172 128 -44 249 -87 268 -97 106 -55 156 -131 147 -220
-24 -231 -303 -324 -553 -184 -46 26 -140 116 -189 181 l-20 26 -167 -131
c-92 -73 -166 -135 -165 -139 5 -20 137 -143 200 -186 170 -118 313 -165 532
-178 282 -17 530 98 667 310 52 81 79 171 85 288 10 184 -27 288 -147 409 -63
64 -92 84 -180 127 -58 28 -193 81 -300 117 -212 72 -286 109 -334 168 -28 35
-31 46 -31 106 0 90 35 150 114 194 47 26 68 32 141 35 145 7 249 -34 346
-136 l52 -54 148 113 c82 62 151 114 153 116 3 2 -13 22 -35 44 -104 107 -255
193 -405 229 -95 23 -277 33 -358 20z"/>
<path d="M13390 5253 c-194 -22 -384 -129 -482 -271 -75 -109 -107 -249 -88
-390 16 -121 55 -199 141 -284 86 -85 185 -134 444 -219 235 -77 282 -97 334
-145 56 -50 71 -82 71 -147 0 -107 -47 -184 -143 -233 -180 -93 -435 -14 -568
175 -36 52 -44 58 -59 48 -81 -57 -320 -254 -320 -264 0 -19 141 -141 236
-205 290 -193 715 -208 976 -35 161 107 264 286 275 479 16 253 -104 436 -362
553 -40 18 -154 61 -255 94 -308 103 -380 156 -380 281 1 153 118 239 313 227
116 -6 210 -50 286 -133 35 -38 55 -53 64 -47 7 4 77 57 156 116 l143 109 -24
25 c-43 47 -170 144 -227 172 -151 77 -360 113 -531 94z"/>
<path d="M19150 5253 c-361 -37 -665 -245 -820 -558 -81 -165 -102 -251 -108
-446 -3 -131 -1 -185 12 -249 90 -443 422 -757 871 -825 126 -19 204 -19 328
0 219 33 392 119 543 269 198 198 302 478 292 791 l-3 100 -525 0 -525 0 -3
-182 -2 -183 325 0 326 0 -6 -22 c-3 -13 -24 -59 -45 -104 -49 -101 -153 -206
-251 -252 -190 -91 -447 -78 -639 31 -71 40 -197 166 -237 237 -81 143 -112
334 -79 490 21 102 91 241 161 317 202 223 526 285 801 153 64 -31 95 -54 155
-117 42 -44 86 -98 99 -121 17 -30 29 -41 40 -37 8 3 84 47 168 97 102 61 151
96 148 105 -15 37 -95 142 -159 206 -215 216 -552 333 -867 300z"/>
<path d="M9131 5163 c-43 -124 -201 -566 -241 -678 -22 -60 -109 -308 -195
-550 -128 -361 -237 -664 -262 -732 -4 -10 39 -13 194 -13 l199 0 61 178 61
177 398 0 399 0 61 -175 61 -175 197 -3 197 -2 -6 22 c-4 13 -38 109 -75 213
-38 105 -94 262 -125 350 -55 155 -215 605 -316 890 -28 77 -84 236 -126 353
l-77 212 -190 0 -191 0 -24 -67z m247 -558 c11 -33 68 -197 126 -364 58 -167
106 -310 106 -317 0 -12 -44 -14 -262 -12 -227 3 -263 5 -261 18 3 36 257 750
263 743 4 -4 17 -35 28 -68z"/>
<path d="M10510 4210 l0 -1020 190 0 190 0 2 703 3 702 90 -121 c50 -67 185
-250 300 -407 195 -266 211 -284 227 -269 9 10 84 109 167 222 83 113 215 292
294 398 l142 192 3 -710 2 -710 190 0 190 0 0 1020 0 1020 -178 0 -177 0 -319
-425 c-175 -234 -322 -424 -327 -423 -7 3 -129 171 -484 666 l-130 182 -187 0
-188 0 0 -1020z"/>
<path d="M14472 4493 c4 -724 4 -740 26 -818 72 -261 228 -417 487 -486 114
-31 336 -31 449 -1 206 56 345 167 429 342 78 162 77 150 77 975 l0 725 -190
0 -189 0 -3 -732 -3 -733 -28 -53 c-38 -73 -97 -128 -175 -165 -58 -27 -78
-32 -147 -32 -65 1 -90 5 -137 27 -110 51 -182 141 -207 256 -7 36 -11 270
-11 742 l0 690 -191 0 -190 0 3 -737z"/>
<path d="M16260 4210 l0 -1020 190 0 190 0 2 712 3 712 139 -219 c77 -121 169
-267 206 -325 37 -58 122 -193 190 -300 68 -107 155 -244 193 -305 38 -60 93
-147 121 -192 l51 -82 203 -1 202 0 0 1020 0 1020 -190 0 -190 0 0 -692 0
-693 -73 113 c-39 62 -198 311 -352 554 -154 242 -319 502 -366 577 l-87 136
-216 3 -216 2 0 -1020z"/>
<path d="M2660 4864 c-500 -324 -1249 -809 -1419 -919 -59 -38 -250 -162 -424
-275 -568 -367 -618 -401 -613 -409 3 -5 166 -113 361 -242 196 -129 449 -295
563 -371 114 -75 290 -191 392 -258 102 -67 271 -179 377 -248 925 -610 1203
-793 1216 -797 12 -5 189 109 1207 780 107 71 314 207 460 303 395 260 632
416 951 627 159 105 296 195 305 200 14 9 -5 24 -107 90 -68 43 -371 239 -674
435 -755 490 -1919 1243 -2036 1318 -53 34 -98 62 -100 62 -2 -1 -209 -133
-459 -296z m706 -490 c132 -81 271 -166 309 -189 39 -23 189 -115 335 -205
146 -90 396 -243 555 -340 544 -333 599 -367 602 -376 1 -5 -88 -65 -200 -133
-209 -129 -314 -194 -527 -326 -69 -43 -251 -155 -405 -250 -154 -95 -395
-243 -535 -330 -140 -87 -283 -175 -317 -196 l-62 -38 -83 53 c-46 29 -166
105 -268 171 -102 65 -405 258 -675 430 -655 418 -949 606 -953 609 -2 2 19
17 45 33 26 17 145 92 263 168 339 217 565 362 695 445 66 42 194 124 285 182
551 353 686 438 691 438 4 0 114 -66 245 -146z"/>
<path d="M1240 1983 l0 -298 268 -171 c301 -193 563 -361 987 -632 160 -102
366 -234 458 -293 l168 -107 557 357 c306 196 644 413 751 481 107 69 269 173
360 231 l166 107 3 296 c1 163 -1 296 -6 296 -5 0 -28 -13 -53 -29 -24 -16
-107 -69 -184 -118 -77 -50 -228 -146 -335 -215 -107 -69 -341 -219 -520 -333
-179 -115 -415 -266 -525 -337 -128 -82 -207 -128 -220 -125 -11 2 -117 66
-235 141 -325 209 -399 256 -735 471 -170 109 -339 217 -375 240 -36 23 -123
79 -195 125 -71 46 -167 107 -211 136 -45 28 -91 57 -103 63 l-21 12 0 -298z"/>
<path d="M6892 1283 l3 -768 138 -3 137 -3 0 771 0 770 -140 0 -140 0 2 -767z"/>
<path d="M7330 1915 l0 -135 205 0 205 0 0 -635 0 -635 140 0 140 0 0 635 0
635 208 2 207 3 3 133 3 132 -556 0 -555 0 0 -135z"/>
<path d="M9576 2018 c-8 -18 -46 -125 -86 -238 -40 -113 -104 -293 -142 -400
-278 -780 -305 -859 -300 -865 3 -3 68 -5 144 -5 l139 0 18 43 c10 23 33 86
51 139 l33 98 298 0 297 0 16 -42 c9 -24 31 -86 50 -138 l34 -95 146 -3 c86
-1 146 1 146 7 0 5 -9 33 -20 63 -25 69 -138 384 -240 673 -45 127 -112 316
-149 420 -38 105 -83 232 -101 283 l-32 92 -145 0 -144 0 -13 -32z m209 -520
c58 -162 145 -419 145 -430 0 -10 -388 -11 -393 0 -5 9 186 562 194 562 4 0
28 -60 54 -132z"/>
<path d="M10552 1283 l3 -768 135 0 135 0 3 318 2 318 52 -3 52 -3 220 -317
220 -318 168 0 c92 0 168 4 168 8 0 4 -124 181 -275 393 -151 211 -273 389
-271 395 2 6 119 171 258 366 140 195 258 360 262 366 5 9 -34 12 -157 12
l-164 0 -120 -172 c-66 -95 -164 -237 -219 -315 l-99 -142 -47 -1 -48 0 0 315
0 315 -140 0 -140 0 2 -767z"/>
<path d="M12307 2033 c-3 -10 -40 -115 -82 -233 -42 -118 -103 -289 -135 -380
-32 -91 -93 -262 -135 -380 -116 -324 -185 -522 -185 -526 0 -3 66 -3 147 -2
l148 3 49 138 49 137 297 0 297 0 49 -137 49 -138 148 -3 c81 -1 147 -1 147 1
0 3 -72 207 -197 557 -30 85 -81 229 -113 320 -33 91 -93 262 -135 380 -43
118 -82 230 -88 248 l-10 32 -148 0 c-131 0 -147 -2 -152 -17z m257 -683 c53
-154 96 -282 96 -285 0 -3 -90 -5 -200 -5 -110 0 -200 2 -200 4 0 3 36 110 81
238 45 128 88 254 97 281 9 26 19 47 23 47 3 0 50 -126 103 -280z"/>
<path d="M13816 1998 c-17 -49 -81 -228 -253 -703 -35 -99 -91 -252 -123 -340
l-58 -160 -76 -3 -76 -3 0 -279 0 -280 130 0 130 0 0 140 0 140 495 0 495 0 0
-140 0 -140 135 0 135 0 0 280 0 280 -78 0 -77 0 -99 273 c-54 149 -134 371
-178 492 -44 121 -102 282 -130 358 l-50 137 -152 0 -151 0 -19 -52z m232
-498 c28 -80 85 -242 127 -360 118 -331 124 -348 117 -354 -8 -9 -612 -7 -612
2 0 10 73 224 138 407 27 77 76 213 107 303 32 90 61 159 66 155 4 -4 30 -73
57 -153z"/>
<path d="M14862 1283 l3 -768 453 -3 452 -2 0 140 0 140 -315 0 -315 0 2 178
3 177 313 3 312 2 0 135 0 135 -310 0 -310 0 -5 23 c-3 12 -4 92 -3 177 l3
155 313 3 312 2 0 135 0 135 -455 0 -455 0 2 -767z"/>
<path d="M15932 1283 l3 -768 140 0 140 0 5 530 5 530 41 -55 c22 -30 124
-169 227 -307 l185 -253 24 29 c12 15 118 156 233 312 l210 284 5 -535 5 -535
140 0 140 0 3 768 2 767 -138 0 -137 0 -240 -319 c-131 -176 -242 -318 -246
-315 -4 2 -72 95 -152 206 -80 112 -181 253 -225 313 l-79 110 -147 3 -146 3
2 -768z"/>
<path d="M17612 1283 l3 -768 147 -3 146 -3 20 28 c10 16 82 136 159 268 149
255 309 529 402 685 l56 95 5 -535 5 -535 140 0 140 0 3 768 2 767 -163 0
-163 0 -269 -462 c-148 -255 -285 -490 -305 -523 l-35 -60 -3 523 -2 522 -145
0 -145 0 2 -767z"/>
<path d="M19410 2034 c-147 -31 -283 -130 -348 -252 -107 -200 -71 -478 80
-632 26 -27 61 -57 78 -67 16 -9 30 -21 30 -26 0 -4 -65 -125 -145 -268 -80
-144 -145 -265 -145 -270 0 -6 65 -8 157 -7 l158 3 116 225 c65 124 123 231
129 238 8 9 44 12 133 10 l122 -3 5 -235 5 -235 140 0 140 0 3 768 2 767 -297
-1 c-215 0 -316 -4 -363 -15z m368 -517 l2 -269 -152 4 c-142 3 -157 5 -203
30 -95 50 -138 126 -138 243 0 86 24 146 77 193 65 57 124 71 296 68 l115 -1
3 -268z"/>
</g>
</svg>
