<?xml version="1.0" encoding="utf-8"?>
<!-- Generator: Adobe Illustrator 27.2.0, SVG Export Plug-In . SVG Version: 6.00 Build 0)  -->
<svg version="1.1" id="Слой_1" xmlns="http://www.w3.org/2000/svg" xmlns:xlink="http://www.w3.org/1999/xlink" x="0px" y="0px"
	 viewBox="0 0 800 800" style="enable-background:new 0 0 800 800;" xml:space="preserve">
<style type="text/css">
	.st0{fill-rule:evenodd;clip-rule:evenodd;}
</style>
<path class="st0" d="M490.4,342.3v24.2c0,8.7-2.1,14.3-5.6,17.3c-3.4,3-10.3,4.3-20.1,4.3v0H296.5v-67.4h168.3
	c9.8,0,16.7,1.7,20.1,4.8C488.3,328.5,490.4,334.1,490.4,342.3z"/>
<path class="st0" d="M733.3,413.3c0.8-137.1,2.5-259.5-46.7-300c-39.9-49.2-162.9-47.6-300-46.7c-150.7,0-226,0-273.3,46.7
	c-46.7,47.1-46.7,122.5-46.7,273.3c-0.8,137.1-2.5,259.5,46.7,300c39.9,49.2,162.9,47.6,300,46.7C710.7,737.9,738,711,733.3,413.3z
	 M490.4,545.4L428,451.6H296.5v93.8h-71.4V257.1h251.2v0c15.8,0,28.6,1.7,38.9,4.8c10.3,3.5,18.8,8.7,26.5,16
	c7.3,7.8,12.4,16.4,15.4,26.4c3,9.9,4.7,22.9,4.7,39.3v21.6c0,27.7-4.7,48.4-14.1,61.4c-9.4,13-20.8,20.8-46.1,24.6l68.8,94.2H490.4
	z M625.2,257.1c-30.3,0-54.8-24.5-54.8-54.8c0-30.3,24.5-54.8,54.8-54.8c30.3,0,54.8,24.5,54.8,54.8
	C680,232.5,655.4,257.1,625.2,257.1z"/>
</svg>
