<?xml version="1.0" encoding="utf-8"?>
<!-- Generator: Adobe Illustrator 27.2.0, SVG Export Plug-In . SVG Version: 6.00 Build 0)  -->
<svg version="1.1" id="Слой_1" xmlns="http://www.w3.org/2000/svg" xmlns:xlink="http://www.w3.org/1999/xlink" x="0px" y="0px"
	 viewBox="0 0 800 800" style="enable-background:new 0 0 800 800;" xml:space="preserve">
<style type="text/css">
	.st0{fill-rule:evenodd;clip-rule:evenodd;}
</style>
<path class="st0" d="M518.2,284L320.8,463.6l-7.6,83.5l-40.5-121.5l232.8-146.8C515.7,271.3,525.8,276.4,518.2,284z"/>
<path class="st0" d="M733.3,413.3c0.8-137.1,2.5-259.5-46.7-300c-39.9-49.2-162.9-47.6-300-46.7c-150.7,0-226,0-273.3,46.7
	c-46.7,47.1-46.7,122.5-46.7,273.3c-0.8,137.1-2.5,259.5,46.7,300c39.9,49.2,162.9,47.6,300,46.7C710.7,737.9,738,711,733.3,413.3z
	 M599.2,240.9l-70.9,331.5c-5.1,22.8-17.7,27.8-38,17.7l-106.3-78.4c-25.3,25.3-48.1,48.1-50.6,50.6c-5.1,5.1-10.1,10.1-20.2,10.1
	c-12.7,0-10.1-5.1-15.2-17.7l-40.5-121.5l-103.8-32.9c-22.8-5.1-22.8-22.8,5.1-32.9L571.4,208C589.1,197.9,606.8,213.1,599.2,240.9z
	"/>
</svg>
